# xmcd CD database file
#
# Track frame offsets:
#	150
#	16211
#	34532
#	52027
#	64996
#	76533
#	90284
#	109629
#	128726
#	143647
#	161630
#
# Disc length: 2375 seconds
#
# Revision: 0
# Processed by: cddbd v1.5.2PL0 Copyright (c) Steve Scherf et al.
# Submitted via: CDex 1.70beta2
#
DISCID=7c09450b
DTITLE=Gitte Haenning - Misty Die unveröffentlichen Jazzaufnahmen
DYEAR=2007
DGENRE=Jazz
TTITLE0=Sentimental Journey
TTITLE1=My Funny Valentine
TTITLE2=Bewitched
TTITLE3=They Can't Take That Away From Me
TTITLE4=How High The Moon
TTITLE5=Feed Me
TTITLE6=Willow Weep For Me
TTITLE7=Come Rain Or Come Shine
TTITLE8=Lover Man
TTITLE9=Misty
TTITLE10=One Day (Waltz for Debbie)
EXTD=YEAR: 2007
EXTT0=
EXTT1=
EXTT2=
EXTT3=
EXTT4=
EXTT5=
EXTT6=
EXTT7=
EXTT8=
EXTT9=
EXTT10=
PLAYORDER=
